<mxfile host="app.diagrams.net" modified="2023-10-05T19:18:55.265Z" agent="Mozilla/5.0 (Windows NT 10.0; Win64; x64) AppleWebKit/537.36 (KHTML, like Gecko) Chrome/117.0.0.0 Safari/537.36" etag="pMW9mz1bPISXG5ixFOFJ" version="22.0.0" type="device">
  <diagram name="Страница — 1" id="RYG17ArLcq8fl88rEdGm">
    <mxGraphModel dx="561" dy="746" grid="1" gridSize="10" guides="1" tooltips="1" connect="1" arrows="1" fold="1" page="1" pageScale="1" pageWidth="827" pageHeight="1169" math="0" shadow="0">
      <root>
        <mxCell id="0" />
        <mxCell id="1" parent="0" />
        <mxCell id="bMk0GrWfZLIAdYAqsidx-4" value="" style="edgeStyle=orthogonalEdgeStyle;rounded=0;orthogonalLoop=1;jettySize=auto;html=1;" edge="1" parent="1" source="bMk0GrWfZLIAdYAqsidx-1" target="bMk0GrWfZLIAdYAqsidx-3">
          <mxGeometry relative="1" as="geometry" />
        </mxCell>
        <mxCell id="bMk0GrWfZLIAdYAqsidx-1" value="start" style="rounded=1;whiteSpace=wrap;html=1;" vertex="1" parent="1">
          <mxGeometry x="40" y="30" width="120" height="60" as="geometry" />
        </mxCell>
        <mxCell id="bMk0GrWfZLIAdYAqsidx-2" value="finish" style="rounded=1;whiteSpace=wrap;html=1;" vertex="1" parent="1">
          <mxGeometry x="680" y="590" width="120" height="60" as="geometry" />
        </mxCell>
        <mxCell id="bMk0GrWfZLIAdYAqsidx-6" value="" style="edgeStyle=orthogonalEdgeStyle;rounded=0;orthogonalLoop=1;jettySize=auto;html=1;" edge="1" parent="1" source="bMk0GrWfZLIAdYAqsidx-3" target="bMk0GrWfZLIAdYAqsidx-5">
          <mxGeometry relative="1" as="geometry" />
        </mxCell>
        <mxCell id="bMk0GrWfZLIAdYAqsidx-3" value="array[size]" style="shape=parallelogram;perimeter=parallelogramPerimeter;whiteSpace=wrap;html=1;fixedSize=1;" vertex="1" parent="1">
          <mxGeometry x="40" y="150" width="120" height="60" as="geometry" />
        </mxCell>
        <mxCell id="bMk0GrWfZLIAdYAqsidx-14" value="" style="edgeStyle=orthogonalEdgeStyle;rounded=0;orthogonalLoop=1;jettySize=auto;html=1;" edge="1" parent="1" source="bMk0GrWfZLIAdYAqsidx-5" target="bMk0GrWfZLIAdYAqsidx-8">
          <mxGeometry relative="1" as="geometry" />
        </mxCell>
        <mxCell id="bMk0GrWfZLIAdYAqsidx-5" value="index = 0&lt;br&gt;j = 0&lt;br&gt;resultArray[n]" style="rounded=0;whiteSpace=wrap;html=1;" vertex="1" parent="1">
          <mxGeometry x="40" y="260" width="120" height="60" as="geometry" />
        </mxCell>
        <mxCell id="bMk0GrWfZLIAdYAqsidx-11" value="true" style="edgeStyle=orthogonalEdgeStyle;rounded=0;orthogonalLoop=1;jettySize=auto;html=1;" edge="1" parent="1" source="bMk0GrWfZLIAdYAqsidx-8">
          <mxGeometry relative="1" as="geometry">
            <mxPoint x="220" y="420" as="targetPoint" />
          </mxGeometry>
        </mxCell>
        <mxCell id="bMk0GrWfZLIAdYAqsidx-12" value="false" style="edgeStyle=orthogonalEdgeStyle;rounded=0;orthogonalLoop=1;jettySize=auto;html=1;" edge="1" parent="1" source="bMk0GrWfZLIAdYAqsidx-8">
          <mxGeometry relative="1" as="geometry">
            <mxPoint x="100" y="590" as="targetPoint" />
          </mxGeometry>
        </mxCell>
        <mxCell id="bMk0GrWfZLIAdYAqsidx-8" value="index&amp;lt; size" style="rhombus;whiteSpace=wrap;html=1;" vertex="1" parent="1">
          <mxGeometry x="60" y="380" width="80" height="80" as="geometry" />
        </mxCell>
        <mxCell id="bMk0GrWfZLIAdYAqsidx-18" value="" style="edgeStyle=orthogonalEdgeStyle;rounded=0;orthogonalLoop=1;jettySize=auto;html=1;" edge="1" parent="1" source="bMk0GrWfZLIAdYAqsidx-16" target="bMk0GrWfZLIAdYAqsidx-17">
          <mxGeometry relative="1" as="geometry" />
        </mxCell>
        <mxCell id="bMk0GrWfZLIAdYAqsidx-19" value="true" style="edgeLabel;html=1;align=center;verticalAlign=middle;resizable=0;points=[];" vertex="1" connectable="0" parent="bMk0GrWfZLIAdYAqsidx-18">
          <mxGeometry relative="1" as="geometry">
            <mxPoint as="offset" />
          </mxGeometry>
        </mxCell>
        <mxCell id="bMk0GrWfZLIAdYAqsidx-23" value="false" style="edgeStyle=orthogonalEdgeStyle;rounded=0;orthogonalLoop=1;jettySize=auto;html=1;" edge="1" parent="1" source="bMk0GrWfZLIAdYAqsidx-16" target="bMk0GrWfZLIAdYAqsidx-22">
          <mxGeometry relative="1" as="geometry" />
        </mxCell>
        <mxCell id="bMk0GrWfZLIAdYAqsidx-16" value="array[index]length &amp;lt;=3" style="rhombus;whiteSpace=wrap;html=1;" vertex="1" parent="1">
          <mxGeometry x="220" y="380" width="160" height="80" as="geometry" />
        </mxCell>
        <mxCell id="bMk0GrWfZLIAdYAqsidx-20" style="edgeStyle=orthogonalEdgeStyle;rounded=0;orthogonalLoop=1;jettySize=auto;html=1;entryX=0.888;entryY=0.625;entryDx=0;entryDy=0;entryPerimeter=0;" edge="1" parent="1" target="bMk0GrWfZLIAdYAqsidx-8">
          <mxGeometry relative="1" as="geometry">
            <mxPoint x="270" y="580" as="sourcePoint" />
            <mxPoint x="130" y="460" as="targetPoint" />
          </mxGeometry>
        </mxCell>
        <mxCell id="bMk0GrWfZLIAdYAqsidx-17" value="&lt;br&gt;index= index+1&lt;br&gt;resultArray[j] = array[index]&lt;br&gt;j = j+1" style="whiteSpace=wrap;html=1;" vertex="1" parent="1">
          <mxGeometry x="210" y="570" width="180" height="80" as="geometry" />
        </mxCell>
        <mxCell id="bMk0GrWfZLIAdYAqsidx-26" value="" style="edgeStyle=orthogonalEdgeStyle;rounded=0;orthogonalLoop=1;jettySize=auto;html=1;" edge="1" parent="1" source="bMk0GrWfZLIAdYAqsidx-21">
          <mxGeometry relative="1" as="geometry">
            <mxPoint x="105" y="690" as="targetPoint" />
          </mxGeometry>
        </mxCell>
        <mxCell id="bMk0GrWfZLIAdYAqsidx-21" value="resultArray[n]" style="shape=document;whiteSpace=wrap;html=1;boundedLbl=1;" vertex="1" parent="1">
          <mxGeometry x="60" y="590" width="90" height="60" as="geometry" />
        </mxCell>
        <mxCell id="bMk0GrWfZLIAdYAqsidx-24" style="edgeStyle=orthogonalEdgeStyle;rounded=0;orthogonalLoop=1;jettySize=auto;html=1;exitX=0.5;exitY=0;exitDx=0;exitDy=0;entryX=1;entryY=0;entryDx=0;entryDy=0;" edge="1" parent="1" source="bMk0GrWfZLIAdYAqsidx-22" target="bMk0GrWfZLIAdYAqsidx-8">
          <mxGeometry relative="1" as="geometry">
            <Array as="points">
              <mxPoint x="500" y="370" />
              <mxPoint x="200" y="370" />
              <mxPoint x="200" y="400" />
            </Array>
          </mxGeometry>
        </mxCell>
        <mxCell id="bMk0GrWfZLIAdYAqsidx-22" value="index= index + 1" style="rounded=0;whiteSpace=wrap;html=1;" vertex="1" parent="1">
          <mxGeometry x="440" y="390" width="120" height="60" as="geometry" />
        </mxCell>
        <mxCell id="bMk0GrWfZLIAdYAqsidx-29" value="finish" style="rounded=1;whiteSpace=wrap;html=1;" vertex="1" parent="1">
          <mxGeometry x="45" y="690" width="120" height="60" as="geometry" />
        </mxCell>
      </root>
    </mxGraphModel>
  </diagram>
</mxfile>
